<svg xmlns="http://www.w3.org/2000/svg" width="28" height="28" viewBox="0 0 28 28">
	<radialGradient id="svgDef-bellGradient" cx="45%" cy="45%" fx="30%" fy="30%">
		<stop offset="0%" stop-color="#FFF" />
		<stop offset="10%" stop-color="#FFFC1B" />
		<stop offset="300%" stop-color="#E3C800" />
	</radialGradient>
	<g id="svgDef-bell" fill-rule="evenodd">
		<path d="M14 1c-2 0-1.288 1.382-2 2-1.26 1.092-3.124 1.582-4 3-1.96 3.17-.687 7.512-2 11-.685 1.819-3.237 3.07-3 5 .058.468.529 1 1 1h20c.694 0 .942-.532 1-1 .237-1.93-2.315-3.181-3-5-1.313-3.488-.04-7.83-2-11-.876-1.418-2.74-1.908-4-3-.712-.618 0-2-2-2zM11 24h6c0 2-1 3-3 3s-3-1-3-3z"/>
	</g>
</svg>