<svg xmlns="http://www.w3.org/2000/svg" xmlns:svg="http://www.w3.org/2000/svg" width="550" height="160" viewBox="0 0 550 160">
	<g id="svgDef-curlyBrace" fill-rule="evenodd"><!--height 550 width 160-->
		<path id="svgDef-curlyBrace-fill" d="M4 116V4h542v112l-36 20-191-2-44 17-39-16-192 3z" />
		<path id="svgDef-curlyBrace-brace" d="M4 118c8.2 12.27 27.924 18.96 43 23 20.335 5.153 44.126 8.218 68 6.5 7.928-.842 26.864-2.907 41-5.5 33.602-4.277 46.864-5 61-5 22.969.876 40.629 7.036 53 16.5 1.765 1.718 4.095 2.5 5 2.5.905 0 3.235-.782 5-2.5 12.371-9.464 30.891-15.624 53-16.5 14.996 0 28.302.723 61 5 15.04 2.593 33.932 4.658 41 5.5 24.734 1.718 48.57-.347 68-5.5 15.9-4.277 43-19.689 43-24v-5s-6.395 4.3-9 6c-14.996 10.306-31.023 16-54 16-14.136 0-27.433-1.223-61-5.5-13.232-1.718-28.792-3.625-35-4.5-42.4-3.436-78.501 3.323-105 20.5-3.538 2.594-7 4.5-7 4.5s-3.462-1.906-7-4.5c-26.499-17.177-61.696-23.936-105-20.5-5.303.875-20.873 2.782-35 4.5-32.69 4.396-47.093 5.586-61 5.5-22.984 0-39.004-5.694-54-16-2.966-2-9-6-9-6z"/>
	</g>
</svg>
